<svg version="1.1" id="Layer_1" xmlns="http://www.w3.org/2000/svg" xmlns:xlink="http://www.w3.org/1999/xlink" x="0px" y="0px"
	 width="100%" viewBox="0 0 1192 1192" enable-background="new 0 0 1192 1192" xml:space="preserve">
<path fill="#FFFFFF" opacity="1.000000" stroke="none" 
	d="
M1.000000,400.000000 
	C1.000000,266.666656 1.000000,133.833328 1.000000,1.000000 
	C398.333344,1.000000 795.666687,1.000000 1193.000000,1.000000 
	C1193.000000,398.333344 1193.000000,795.666687 1193.000000,1193.000000 
	C795.666687,1193.000000 398.333344,1193.000000 1.000000,1193.000000 
	C1.000000,928.833313 1.000000,664.666687 1.000000,400.000000 
M244.942230,635.248169 
	C244.227051,628.842957 243.511871,622.437744 242.796707,616.032532 
	C242.470505,616.060791 242.144302,616.088989 241.818100,616.117188 
	C242.473175,622.733459 243.128250,629.349792 243.853500,636.890564 
	C244.449600,642.595032 245.045715,648.299561 245.701035,654.895752 
	C245.886246,656.718689 246.014481,658.549561 246.264862,660.363464 
	C255.802673,729.459778 279.131805,793.492249 316.891724,852.186096 
	C318.733521,855.048950 321.202393,857.765808 323.958160,859.744385 
	C365.107666,889.288879 409.894958,911.587402 458.284760,926.594543 
	C466.703613,929.205444 475.231201,931.465698 483.708557,933.887878 
	C483.668121,932.714600 483.302246,932.216919 482.824493,932.060120 
	C460.193481,924.634094 438.746490,914.633118 418.181183,902.648865 
	C396.363586,889.934753 376.122650,875.022156 357.629425,857.917358 
	C341.752350,843.232300 327.293182,827.196289 314.161377,809.878845 
	C295.332825,785.048950 280.161102,758.212891 268.357635,729.517822 
	C258.366547,705.228638 250.870773,680.106567 247.019897,653.194031 
	C246.290009,647.495178 245.560120,641.796326 244.942230,635.248169 
M631.203491,1186.062988 
	C621.697937,1186.551880 612.192383,1187.040771 602.686768,1187.529541 
	C606.796875,1188.055420 610.864624,1188.178467 614.921997,1188.025879 
	C620.621155,1187.811523 626.312622,1187.392456 632.937256,1187.034058 
	C640.289246,1186.468384 647.641235,1185.902710 655.911926,1185.294556 
	C664.018433,1184.248535 672.124878,1183.202637 681.081726,1182.161987 
	C704.394775,1177.458862 727.844055,1173.337524 750.989319,1167.917847 
	C786.680298,1159.560425 820.553040,1145.989014 853.558044,1130.148438 
	C886.391541,1114.390381 917.754089,1096.133179 946.614685,1073.929199 
	C965.692200,1059.252075 984.612122,1044.200928 1002.215759,1027.826294 
	C1018.541565,1012.640320 1033.549561,995.927917 1048.162842,979.043884 
	C1060.763672,964.485046 1072.699951,949.229248 1083.670044,933.408020 
	C1102.593628,906.116089 1119.040405,877.332581 1133.097290,847.151001 
	C1146.152466,819.120300 1156.539795,790.157715 1165.644897,760.683533 
	C1167.372559,755.090759 1168.564819,749.332458 1170.244629,742.701233 
	C1169.333618,743.779297 1169.044067,743.992126 1168.934448,744.274841 
	C1168.514893,745.358459 1168.146484,746.462341 1167.770630,747.562622 
	C1133.327393,848.395569 1072.293213,929.176697 984.979248,990.197754 
	C980.946838,993.015869 976.895264,996.239990 973.945984,1000.108582 
	C936.849243,1048.767578 892.218018,1088.997192 839.821716,1120.574219 
	C789.384766,1150.970337 735.035522,1170.927246 676.233643,1181.054688 
	C669.172668,1182.079224 662.111694,1183.103760 654.191101,1184.026733 
	C646.815125,1184.731079 639.439148,1185.435303 631.203491,1186.062988 
M618.922485,950.953430 
	C629.919922,950.093445 640.917297,949.233521 652.812073,948.247559 
	C661.536743,947.065430 670.317200,946.195862 678.977234,944.651306 
	C741.999939,933.411194 800.438843,910.425903 854.203735,875.672119 
	C859.325195,872.361572 865.299377,869.137878 868.490662,864.299500 
	C879.012756,848.346008 889.197571,832.071716 898.141296,815.194275 
	C924.246277,765.932129 940.484680,713.428650 947.908142,657.277954 
	C948.748291,649.260681 949.588501,641.243469 950.428711,633.226196 
	C950.056580,633.192017 949.684387,633.157837 949.312256,633.123657 
	C948.242920,641.430420 947.173584,649.737122 945.979675,658.840881 
	C945.686768,660.137390 945.351807,661.426025 945.107117,662.731567 
	C936.506409,708.628784 918.871033,750.907349 893.493835,789.950134 
	C877.154846,815.087524 858.451111,838.375000 835.502686,857.874634 
	C822.842102,868.632507 809.978943,879.224548 796.554626,888.994812 
	C774.188965,905.272461 749.445190,917.362061 723.801331,927.541138 
	C700.644043,936.733032 676.781189,943.516602 651.213867,946.997986 
	C645.318481,947.677979 639.420288,948.333923 633.528625,949.045044 
	C628.355835,949.669373 623.190491,950.355530 617.784302,951.127136 
	C617.851135,951.077515 617.917969,951.027832 618.922485,950.953430 
M550.718323,8.835682 
	C565.801025,7.802698 580.883667,6.769714 592.560181,5.970014 
	C588.350830,5.970014 580.762329,5.794686 573.185669,6.018682 
	C565.406677,6.248659 557.639221,6.868843 549.058044,7.314872 
	C542.370850,8.132148 535.683716,8.949423 528.102356,9.789861 
	C493.252655,13.676890 458.899292,20.323814 425.364502,30.450769 
	C390.822815,40.881783 357.435669,54.385674 325.375122,71.128601 
	C300.946625,83.885864 277.064301,97.564423 255.067886,114.135666 
	C235.079361,129.194229 215.183945,144.545349 196.654556,161.321594 
	C179.968857,176.428589 164.619095,193.140656 149.742035,210.077591 
	C136.160736,225.539322 123.228882,241.706741 111.387253,258.531891 
	C89.819397,289.176575 71.615082,321.828979 56.326130,356.113312 
	C45.267082,380.912415 36.324486,406.444305 28.340590,432.343445 
	C26.562437,438.111664 25.316151,444.043854 23.619331,450.708252 
	C24.546207,449.933105 24.744543,449.850800 24.791721,449.715698 
	C26.435984,445.009186 27.993549,440.271179 29.708708,435.590851 
	C65.445183,338.072906 126.513153,260.280823 211.959259,201.435623 
	C214.778000,199.494431 217.376740,196.978897 219.453690,194.255035 
	C239.217697,168.335068 261.178772,144.462723 285.780670,123.080238 
	C355.940643,62.101429 437.012054,24.707806 529.819702,11.051966 
	C536.505310,10.272215 543.190918,9.492463 550.718323,8.835682 
M709.694336,260.457062 
	C709.041565,260.410889 708.388794,260.364746 707.736023,260.318573 
	C707.738953,260.532227 707.741882,260.745850 707.744751,260.959503 
	C708.511841,260.959503 709.278931,260.959503 710.357361,261.628265 
	C732.074951,268.994537 752.841431,278.430756 772.718628,289.887177 
	C808.358582,310.428558 839.618042,336.118896 866.239441,367.582703 
	C881.826721,386.005249 895.723450,405.532227 907.205017,426.691071 
	C925.849915,461.050995 939.441467,497.290070 946.018311,536.800354 
	C947.181030,545.184875 948.343689,553.569397 949.506348,561.953918 
	C949.878906,561.912354 950.251465,561.870728 950.624023,561.829102 
	C949.625549,553.176819 948.627136,544.524597 947.632690,535.091980 
	C946.320801,526.725586 945.245117,518.314148 943.658936,510.000061 
	C932.636597,452.225281 911.928101,398.175293 880.882019,348.173767 
	C877.942139,343.438934 874.877686,338.188293 870.530273,335.012512 
	C828.789551,304.520416 783.050354,281.881378 733.567444,266.907196 
	C725.822937,264.563599 717.850830,262.971954 709.694336,260.457062 
M1004.848877,965.036438 
	C1035.274536,941.423157 1062.267334,914.327393 1085.611206,883.749817 
	C1155.124512,792.695435 1187.866821,689.927246 1183.177368,575.324951 
	C1182.236572,552.337097 1179.528198,529.597839 1175.083862,507.046387 
	C1158.092651,420.826263 1119.824707,345.265991 1060.638550,280.437408 
	C1016.018066,231.563248 963.264832,193.732620 902.531494,167.321579 
	C835.528503,138.184067 765.505676,125.513168 692.432800,128.707901 
	C658.993591,130.169861 626.398621,135.994705 594.067322,143.995575 
	C559.329407,152.591995 546.785583,192.039154 570.307678,219.035675 
	C582.396118,232.909607 598.922119,237.114090 616.328247,238.867920 
	C633.853760,240.633774 651.484131,241.589676 668.917725,243.993835 
	C714.562988,250.288544 758.117004,263.897186 799.749512,283.532867 
	C854.423340,309.319489 902.516724,344.217102 944.016663,388.243103 
	C973.211731,419.215149 997.994019,453.348938 1017.882568,490.933563 
	C1057.806396,566.380188 1076.713867,646.784973 1073.103516,732.174255 
	C1072.269043,751.909363 1070.696167,771.729980 1067.668823,791.232727 
	C1059.880615,841.408936 1044.079346,889.115845 1020.516479,934.161865 
	C1015.124146,944.470520 1009.375122,954.592651 1003.386414,965.036804 
	C1003.436462,965.291565 1003.486450,965.546387 1003.536499,965.801147 
	C1003.752197,965.598511 1003.967896,965.395874 1004.848877,965.036438 
M229.910385,1004.248718 
	C229.363907,1004.268982 228.817413,1004.289307 228.270920,1004.309570 
	C228.604523,1004.747681 228.938126,1005.185730 229.619247,1006.200623 
	C245.158722,1023.099365 259.550201,1041.252441 276.423187,1056.694092 
	C389.445923,1160.129028 522.411255,1200.756836 673.579529,1177.390991 
	C777.334351,1161.353760 865.650757,1113.334473 937.508667,1036.826538 
	C1015.907593,953.354370 1058.165649,853.666870 1064.829834,739.314758 
	C1067.257935,697.649902 1063.999390,656.166016 1054.771729,615.361206 
	C1030.423706,507.694275 975.124573,419.166565 889.613281,349.448517 
	C888.428345,348.482422 887.141479,347.641479 885.902161,346.742126 
	C885.837402,348.584961 886.442505,349.674652 887.084167,350.742401 
	C928.167480,419.112030 950.709656,493.173309 954.846863,572.783936 
	C956.929871,612.865723 953.916931,652.625854 946.019592,692.007690 
	C934.407959,749.911743 912.513855,803.773926 880.948914,853.513184 
	C849.963867,902.338684 811.107910,944.174255 764.675781,978.802979 
	C685.976318,1037.496582 597.443420,1068.934082 499.495331,1073.691650 
	C469.531128,1075.147095 439.642059,1073.450317 409.883820,1069.137329 
	C368.591003,1063.152344 328.624817,1052.394531 290.575836,1035.381836 
	C270.008118,1026.185425 250.319397,1015.023132 229.910385,1004.248718 
M189.114853,228.854950 
	C187.494385,230.014725 185.804626,231.089615 184.263809,232.347000 
	C161.118576,251.234833 139.823074,271.991913 120.495537,294.802155 
	C87.812881,333.373993 61.967979,376.083862 43.277180,423.003723 
	C17.273281,488.281799 6.460559,556.060547 10.840147,626.265442 
	C12.386172,651.048279 15.640553,675.568848 21.207340,699.733887 
	C42.528484,792.287476 87.431091,871.465454 156.249405,937.036133 
	C192.979248,972.032593 234.335037,1000.213501 280.248108,1021.734009 
	C339.043304,1049.292847 401.013855,1063.618652 465.817261,1065.696289 
	C496.320709,1066.674316 526.629333,1064.233643 556.743164,1059.147705 
	C619.265564,1048.588379 677.185791,1026.186279 730.648132,992.139771 
	C756.578552,975.626404 780.947388,957.004517 802.647949,935.298279 
	C818.255249,919.686951 832.290161,902.503601 847.417725,885.850525 
	C847.367737,885.647583 847.317810,885.444580 847.267822,885.241638 
	C847.140076,885.458435 847.012390,885.675232 846.157898,885.757996 
	C828.620422,894.927795 811.414185,904.811279 793.483276,913.133362 
	C739.764221,938.065552 683.048767,951.654846 623.990967,954.713196 
	C603.286255,955.785278 582.437378,954.851807 561.685547,954.037842 
	C535.869385,953.025208 510.446838,948.627625 485.388855,942.496399 
	C391.260956,919.464905 311.199829,872.386108 245.475647,801.145386 
	C196.950562,748.547302 162.280273,687.908386 141.017303,619.592285 
	C128.644318,579.838989 121.866379,539.088989 120.222221,497.546936 
	C118.982605,466.226166 120.915863,435.042694 125.783691,404.015747 
	C132.925781,358.492889 146.338104,314.946930 166.376022,273.506653 
	C173.679901,258.401581 182.127548,243.849548 190.435730,228.862869 
	C190.395294,228.646179 190.354843,228.429489 190.314392,228.212799 
	C190.146698,228.413620 189.979004,228.614456 189.114853,228.854950 
M281.935181,825.566101 
	C290.676300,833.069458 299.417389,840.572815 308.158478,848.076172 
	C258.003510,763.177124 234.096054,672.020569 238.903748,573.658447 
	C243.715744,475.208466 275.718353,386.275604 335.717285,308.176270 
	C410.148926,211.290222 507.810303,150.527588 628.040649,128.103333 
	C747.838257,105.759773 860.175903,127.958710 965.049866,189.728775 
	C964.507568,188.366364 963.860596,187.404678 963.137268,186.504211 
	C919.614624,132.318863 866.998962,89.235069 804.597290,58.625317 
	C709.504883,11.979926 609.574524,-1.615139 505.730621,19.132240 
	C388.699890,42.514278 293.655090,102.378525 222.088837,197.794312 
	C155.732330,286.264191 124.851349,386.470032 128.756668,497.213165 
	C129.773239,526.040466 133.441391,554.484253 139.921097,582.575012 
	C161.949936,678.074463 209.389481,758.751282 281.935181,825.566101 
M190.999390,1027.503052 
	C199.514389,1035.021606 207.734085,1042.911255 216.610367,1049.975952 
	C231.672485,1061.964111 246.826828,1073.885742 262.521118,1085.019531 
	C290.873260,1105.132812 321.355499,1121.584229 352.954315,1136.052002 
	C377.787109,1147.421997 403.381134,1156.675049 429.439148,1164.719238 
	C434.041901,1166.140015 438.783936,1167.109497 443.461639,1168.287354 
	C442.587616,1166.873657 441.448395,1166.306274 440.257874,1165.883057 
	C345.709076,1132.274902 268.943512,1074.865845 209.744553,993.864441 
	C207.246399,990.446045 204.127350,987.259216 200.712616,984.765442 
	C117.369583,923.900208 58.765057,844.878235 25.790485,746.978271 
	C25.169983,745.135986 24.386930,743.348572 23.679722,741.535522 
	C23.279325,741.677551 22.878929,741.819580 22.478535,741.961609 
	C27.323315,757.536011 31.937613,773.186707 37.062592,788.668335 
	C46.675831,817.708191 58.845268,845.663208 73.218658,872.681030 
	C86.695526,898.013550 101.745651,922.312561 118.723190,945.469666 
	C134.380692,966.826355 151.099823,987.241394 169.653885,1006.136841 
	C176.541718,1013.151367 183.547028,1020.050537 190.999390,1027.503052 
M1007.500916,170.998032 
	C933.074463,99.740677 846.174255,50.871136 746.431274,25.074087 
	C748.177368,26.303864 750.175476,27.069658 752.194397,27.775885 
	C845.410522,60.383137 921.311646,116.524834 980.546326,195.452362 
	C984.768066,201.077621 989.632568,206.596466 995.248230,210.742523 
	C1066.981812,263.703796 1120.614746,330.904144 1155.191040,413.154755 
	C1160.424805,425.604553 1164.894897,438.375366 1169.869751,451.394287 
	C1169.869751,450.179413 1170.067627,449.300537 1169.840454,448.550415 
	C1165.243530,433.374786 1161.248413,417.975555 1155.801270,403.108978 
	C1148.609009,383.480255 1140.980713,363.945557 1132.265991,344.955048 
	C1117.573730,312.938904 1099.916626,282.497162 1078.921631,254.168854 
	C1066.178955,236.975357 1052.894897,220.137939 1039.052490,203.820389 
	C1029.406128,192.448944 1018.399902,182.231064 1007.500916,170.998032 
M720.175842,649.997009 
	C727.483093,648.664307 734.908630,647.782471 742.071960,645.901611 
	C755.428345,642.394714 766.994263,636.026978 774.160156,623.451599 
	C780.981750,611.480286 781.810425,598.792297 780.130493,585.357361 
	C777.646667,565.493774 766.057922,553.653809 748.187134,547.039917 
	C731.954834,541.032349 714.946655,540.788879 697.892273,540.952271 
	C683.647339,541.088806 669.668213,542.693115 656.407715,548.066284 
	C643.765686,553.188782 633.948914,561.411072 629.534424,574.920715 
	C626.356567,584.646057 625.447388,594.452393 626.890320,604.687988 
	C628.691956,617.468262 633.584839,628.155884 644.140564,636.045288 
	C657.863403,646.301941 673.935303,648.745911 690.268188,649.877869 
	C699.877869,650.543823 709.571472,649.999329 720.175842,649.997009 
M613.990967,638.485901 
	C606.219299,630.308411 598.447632,622.130981 590.784729,614.067932 
	C591.232605,613.853821 592.067078,613.295532 592.985779,613.038879 
	C616.570374,606.450012 621.812561,577.235352 610.591736,561.025513 
	C601.675354,548.144775 588.016785,543.915039 573.941467,543.315918 
	C547.997681,542.211792 521.973328,542.979614 495.982819,543.062012 
	C494.664337,543.066223 492.847137,543.566895 492.109894,544.503662 
	C485.347626,553.095825 478.772919,561.835632 471.787445,570.999451 
	C503.715881,570.999451 534.849609,570.890076 565.980469,571.139343 
	C569.828857,571.170166 574.193298,572.306946 577.351135,574.394775 
	C580.444702,576.440002 583.288696,579.720886 581.142639,584.725403 
	C578.694641,590.434082 573.030823,593.993225 564.508362,593.996399 
	C535.518677,594.007263 506.529022,594.000549 477.539337,594.000549 
	C475.771667,594.000549 474.003998,594.000549 472.277374,594.000549 
	C472.277374,612.622864 472.277374,630.690002 472.277374,648.720093 
	C483.625641,648.720093 494.694977,648.720093 506.161377,648.720093 
	C506.161377,639.370911 506.161377,630.295593 506.161377,620.999695 
	C522.199951,620.999695 537.837341,620.985779 553.474487,621.038513 
	C554.309326,621.041321 555.436646,621.359619 555.931213,621.948242 
	C561.487488,628.561523 566.875977,635.316345 572.466980,641.899475 
	C574.623901,644.439026 577.094604,648.563538 579.570801,648.675293 
	C593.950867,649.324158 608.375244,648.992554 624.424194,648.992554 
	C620.405029,644.947754 617.446228,641.970154 613.990967,638.485901 
M829.999451,547.620544 
	C829.999451,546.178833 829.999451,544.737061 829.999451,543.251831 
	C818.431763,543.251831 807.362915,543.251831 796.246582,543.251831 
	C796.246582,578.566895 796.246582,613.630127 796.246582,648.750488 
	C807.563293,648.750488 818.632263,648.750488 830.099548,648.750488 
	C830.099548,635.100525 830.099548,621.694153 830.099548,608.248962 
	C850.901917,608.248962 871.302124,608.248962 892.101868,608.248962 
	C892.101868,621.899414 892.101868,635.305786 892.101868,648.745117 
	C903.240662,648.745117 913.976501,648.745117 924.750366,648.745117 
	C924.750366,613.427002 924.750366,578.363708 924.750366,543.252686 
	C913.763794,543.252686 903.028015,543.252686 891.893799,543.252686 
	C891.893799,555.572571 891.893799,567.646667 891.893799,579.747437 
	C871.090881,579.747437 850.690613,579.747437 829.999451,579.747437 
	C829.999451,569.198303 829.999451,558.899536 829.999451,547.620544 
M354.500000,570.999451 
	C364.166290,570.999451 373.852814,570.636414 383.489166,571.173401 
	C387.492249,571.396423 389.401825,569.454712 391.421600,567.009583 
	C393.586639,564.388550 395.557556,561.606812 397.606476,558.890198 
	C401.446655,553.798523 405.282013,548.703186 409.577972,543.000549 
	C407.056854,543.000549 405.427368,543.000549 403.797913,543.000549 
	C380.298492,543.000549 356.797363,543.163879 333.300537,542.917175 
	C324.366913,542.823364 315.826538,544.123291 307.408752,546.983154 
	C281.528809,555.775818 267.236237,577.292480 272.165100,604.641663 
	C275.164001,621.281921 285.763611,632.896973 300.443665,640.765808 
	C311.374573,646.625000 323.398346,648.557251 335.563843,648.896484 
	C350.884888,649.323608 366.230743,648.804749 381.557617,649.110291 
	C386.581970,649.210449 389.801208,647.785950 392.392548,643.369568 
	C394.677063,639.476196 398.043945,636.227295 400.842651,632.623718 
	C403.659882,628.996338 406.365784,625.282532 409.574615,621.000549 
	C407.057953,621.000549 405.428833,621.000549 403.799713,621.000549 
	C382.300232,621.000549 360.797211,621.216858 339.303589,620.862427 
	C333.240784,620.762390 327.044800,619.547852 321.194763,617.858215 
	C312.056549,615.218872 305.248383,605.670044 304.960205,597.020569 
	C304.520081,583.812866 314.184387,574.123596 325.834106,572.227783 
	C334.883087,570.755249 344.265686,571.333008 354.500000,570.999451 
M420.000580,606.500000 
	C420.000580,620.594299 420.000580,634.688599 420.000580,648.708618 
	C431.647888,648.708618 442.718140,648.708618 453.712097,648.708618 
	C453.712097,613.352356 453.712097,578.287720 453.712097,543.291382 
	C442.352173,543.291382 431.282013,543.291382 420.000580,543.291382 
	C420.000580,564.220947 420.000580,584.860474 420.000580,606.500000 
z"/>
<path fill="#75ACC4" opacity="1.000000" stroke="none" 
	d="
M847.026489,886.021606 
	C832.290161,902.503601 818.255249,919.686951 802.647949,935.298279 
	C780.947388,957.004517 756.578552,975.626404 730.648132,992.139771 
	C677.185791,1026.186279 619.265564,1048.588379 556.743164,1059.147705 
	C526.629333,1064.233643 496.320709,1066.674316 465.817261,1065.696289 
	C401.013855,1063.618652 339.043304,1049.292847 280.248108,1021.734009 
	C234.335037,1000.213501 192.979248,972.032593 156.249405,937.036133 
	C87.431091,871.465454 42.528484,792.287476 21.207340,699.733887 
	C15.640553,675.568848 12.386172,651.048279 10.840147,626.265442 
	C6.460559,556.060547 17.273281,488.281799 43.277180,423.003723 
	C61.967979,376.083862 87.812881,333.373993 120.495537,294.802155 
	C139.823074,271.991913 161.118576,251.234833 184.263809,232.347000 
	C185.804626,231.089615 187.494385,230.014725 189.523209,228.893005 
	C189.931564,228.931061 190.053360,229.045181 190.053375,229.045181 
	C182.127548,243.849548 173.679901,258.401581 166.376022,273.506653 
	C146.338104,314.946930 132.925781,358.492889 125.783691,404.015747 
	C120.915863,435.042694 118.982605,466.226166 120.222221,497.546936 
	C121.866379,539.088989 128.644318,579.838989 141.017303,619.592285 
	C162.280273,687.908386 196.950562,748.547302 245.475647,801.145386 
	C311.199829,872.386108 391.260956,919.464905 485.388855,942.496399 
	C510.446838,948.627625 535.869385,953.025208 561.685547,954.037842 
	C582.437378,954.851807 603.286255,955.785278 623.990967,954.713196 
	C683.048767,951.654846 739.764221,938.065552 793.483276,913.133362 
	C811.414185,904.811279 828.620422,894.927795 846.556641,885.857544 
	C846.955322,885.957031 847.026550,886.021606 847.026489,886.021606 
z"/>
<path fill="#265F9C" opacity="1.000000" stroke="none" 
	d="
M281.681854,825.318176 
	C209.389481,758.751282 161.949936,678.074463 139.921097,582.575012 
	C133.441391,554.484253 129.773239,526.040466 128.756668,497.213165 
	C124.851349,386.470032 155.732330,286.264191 222.088837,197.794312 
	C293.655090,102.378525 388.699890,42.514278 505.730621,19.132240 
	C609.574524,-1.615139 709.504883,11.979926 804.597290,58.625317 
	C866.998962,89.235069 919.614624,132.318863 963.137268,186.504211 
	C963.860596,187.404678 964.507568,188.366364 965.049866,189.728775 
	C860.175903,127.958710 747.838257,105.759773 628.040649,128.103333 
	C507.810303,150.527588 410.148926,211.290222 335.717285,308.176270 
	C275.718353,386.275604 243.715744,475.208466 238.903748,573.658447 
	C234.096054,672.020569 258.003510,763.177124 308.158478,848.076172 
	C299.417389,840.572815 290.676300,833.069458 281.681854,825.318176 
z"/>
<path fill="#265F9C" opacity="1.000000" stroke="none" 
	d="
M230.234131,1004.747742 
	C250.319397,1015.023132 270.008118,1026.185425 290.575836,1035.381836 
	C328.624817,1052.394531 368.591003,1063.152344 409.883820,1069.137329 
	C439.642059,1073.450317 469.531128,1075.147095 499.495331,1073.691650 
	C597.443420,1068.934082 685.976318,1037.496582 764.675781,978.802979 
	C811.107910,944.174255 849.963867,902.338684 880.948914,853.513184 
	C912.513855,803.773926 934.407959,749.911743 946.019592,692.007690 
	C953.916931,652.625854 956.929871,612.865723 954.846863,572.783936 
	C950.709656,493.173309 928.167480,419.112030 887.084167,350.742401 
	C886.442505,349.674652 885.837402,348.584961 885.902161,346.742126 
	C887.141479,347.641479 888.428345,348.482422 889.613281,349.448517 
	C975.124573,419.166565 1030.423706,507.694275 1054.771729,615.361206 
	C1063.999390,656.166016 1067.257935,697.649902 1064.829834,739.314758 
	C1058.165649,853.666870 1015.907593,953.354370 937.508667,1036.826538 
	C865.650757,1113.334473 777.334351,1161.353760 673.579529,1177.390991 
	C522.411255,1200.756836 389.445923,1160.129028 276.423187,1056.694092 
	C259.550201,1041.252441 245.158722,1023.099365 229.694824,1005.702759 
	C229.924988,1005.052490 230.079559,1004.900085 230.234131,1004.747742 
z"/>
<path fill="#75ACC4" opacity="1.000000" stroke="none" 
	d="
M1003.790283,964.800659 
	C1009.375122,954.592651 1015.124146,944.470520 1020.516479,934.161865 
	C1044.079346,889.115845 1059.880615,841.408936 1067.668823,791.232727 
	C1070.696167,771.729980 1072.269043,751.909363 1073.103516,732.174255 
	C1076.713867,646.784973 1057.806396,566.380188 1017.882568,490.933563 
	C997.994019,453.348938 973.211731,419.215149 944.016663,388.243103 
	C902.516724,344.217102 854.423340,309.319489 799.749512,283.532867 
	C758.117004,263.897186 714.562988,250.288544 668.917725,243.993835 
	C651.484131,241.589676 633.853760,240.633774 616.328247,238.867920 
	C598.922119,237.114090 582.396118,232.909607 570.307678,219.035675 
	C546.785583,192.039154 559.329407,152.591995 594.067322,143.995575 
	C626.398621,135.994705 658.993591,130.169861 692.432800,128.707901 
	C765.505676,125.513168 835.528503,138.184067 902.531494,167.321579 
	C963.264832,193.732620 1016.018066,231.563248 1060.638550,280.437408 
	C1119.824707,345.265991 1158.092651,420.826263 1175.083862,507.046387 
	C1179.528198,529.597839 1182.236572,552.337097 1183.177368,575.324951 
	C1187.866821,689.927246 1155.124512,792.695435 1085.611206,883.749817 
	C1062.267334,914.327393 1035.274536,941.423157 1004.418823,965.015747 
	C1003.988770,964.995117 1003.790283,964.800659 1003.790283,964.800659 
z"/>
<path fill="#27609D" opacity="1.000000" stroke="none" 
	d="
M528.952820,10.913548 
	C437.012054,24.707806 355.940643,62.101429 285.780670,123.080238 
	C261.178772,144.462723 239.217697,168.335068 219.453690,194.255035 
	C217.376740,196.978897 214.778000,199.494431 211.959259,201.435623 
	C126.513153,260.280823 65.445183,338.072906 29.708708,435.590851 
	C27.993549,440.271179 26.435984,445.009186 24.791721,449.715698 
	C24.744543,449.850800 24.546207,449.933105 23.619331,450.708252 
	C25.316151,444.043854 26.562437,438.111664 28.340590,432.343445 
	C36.324486,406.444305 45.267082,380.912415 56.326130,356.113312 
	C71.615082,321.828979 89.819397,289.176575 111.387253,258.531891 
	C123.228882,241.706741 136.160736,225.539322 149.742035,210.077591 
	C164.619095,193.140656 179.968857,176.428589 196.654556,161.321594 
	C215.183945,144.545349 235.079361,129.194229 255.067886,114.135666 
	C277.064301,97.564423 300.946625,83.885864 325.375122,71.128601 
	C357.435669,54.385674 390.822815,40.881783 425.364502,30.450769 
	C458.899292,20.323814 493.252655,13.676890 528.552673,10.065550 
	C528.986267,10.532007 528.969543,10.722777 528.952820,10.913548 
z"/>
<path fill="#27609D" opacity="1.000000" stroke="none" 
	d="
M677.076233,1181.149414 
	C735.035522,1170.927246 789.384766,1150.970337 839.821716,1120.574219 
	C892.218018,1088.997192 936.849243,1048.767578 973.945984,1000.108582 
	C976.895264,996.239990 980.946838,993.015869 984.979248,990.197754 
	C1072.293213,929.176697 1133.327393,848.395569 1167.770630,747.562622 
	C1168.146484,746.462341 1168.514893,745.358459 1168.934448,744.274841 
	C1169.044067,743.992126 1169.333618,743.779297 1170.244629,742.701233 
	C1168.564819,749.332458 1167.372559,755.090759 1165.644897,760.683533 
	C1156.539795,790.157715 1146.152466,819.120300 1133.097290,847.151001 
	C1119.040405,877.332581 1102.593628,906.116089 1083.670044,933.408020 
	C1072.699951,949.229248 1060.763672,964.485046 1048.162842,979.043884 
	C1033.549561,995.927917 1018.541565,1012.640320 1002.215759,1027.826294 
	C984.612122,1044.200928 965.692200,1059.252075 946.614685,1073.929199 
	C917.754089,1096.133179 886.391541,1114.390381 853.558044,1130.148438 
	C820.553040,1145.989014 786.680298,1159.560425 750.989319,1167.917847 
	C727.844055,1173.337524 704.394775,1177.458862 680.316528,1182.083252 
	C678.726257,1181.719482 677.901245,1181.434448 677.076233,1181.149414 
z"/>
<path fill="#27609D" opacity="1.000000" stroke="none" 
	d="
M190.749069,1027.252686 
	C183.547028,1020.050537 176.541718,1013.151367 169.653885,1006.136841 
	C151.099823,987.241394 134.380692,966.826355 118.723190,945.469666 
	C101.745651,922.312561 86.695526,898.013550 73.218658,872.681030 
	C58.845268,845.663208 46.675831,817.708191 37.062592,788.668335 
	C31.937613,773.186707 27.323315,757.536011 22.478535,741.961609 
	C22.878929,741.819580 23.279325,741.677551 23.679722,741.535522 
	C24.386930,743.348572 25.169983,745.135986 25.790485,746.978271 
	C58.765057,844.878235 117.369583,923.900208 200.712616,984.765442 
	C204.127350,987.259216 207.246399,990.446045 209.744553,993.864441 
	C268.943512,1074.865845 345.709076,1132.274902 440.257874,1165.883057 
	C441.448395,1166.306274 442.587616,1166.873657 443.461639,1168.287354 
	C438.783936,1167.109497 434.041901,1166.140015 429.439148,1164.719238 
	C403.381134,1156.675049 377.787109,1147.421997 352.954315,1136.052002 
	C321.355499,1121.584229 290.873260,1105.132812 262.521118,1085.019531 
	C246.826828,1073.885742 231.672485,1061.964111 216.610367,1049.975952 
	C207.734085,1042.911255 199.514389,1035.021606 190.749069,1027.252686 
z"/>
<path fill="#27609D" opacity="1.000000" stroke="none" 
	d="
M1007.750977,171.247971 
	C1018.399902,182.231064 1029.406128,192.448944 1039.052490,203.820389 
	C1052.894897,220.137939 1066.178955,236.975357 1078.921631,254.168854 
	C1099.916626,282.497162 1117.573730,312.938904 1132.265991,344.955048 
	C1140.980713,363.945557 1148.609009,383.480255 1155.801270,403.108978 
	C1161.248413,417.975555 1165.243530,433.374786 1169.840454,448.550415 
	C1170.067627,449.300537 1169.869751,450.179413 1169.869751,451.394287 
	C1164.894897,438.375366 1160.424805,425.604553 1155.191040,413.154755 
	C1120.614746,330.904144 1066.981812,263.703796 995.248230,210.742523 
	C989.632568,206.596466 984.768066,201.077621 980.546326,195.452362 
	C921.311646,116.524834 845.410522,60.383137 752.194397,27.775885 
	C750.175476,27.069658 748.177368,26.303864 746.431274,25.074087 
	C846.174255,50.871136 933.074463,99.740677 1007.750977,171.247971 
z"/>
<path fill="#050708" opacity="1.000000" stroke="none" 
	d="
M719.701538,649.998169 
	C709.571472,649.999329 699.877869,650.543823 690.268188,649.877869 
	C673.935303,648.745911 657.863403,646.301941 644.140564,636.045288 
	C633.584839,628.155884 628.691956,617.468262 626.890320,604.687988 
	C625.447388,594.452393 626.356567,584.646057 629.534424,574.920715 
	C633.948914,561.411072 643.765686,553.188782 656.407715,548.066284 
	C669.668213,542.693115 683.647339,541.088806 697.892273,540.952271 
	C714.946655,540.788879 731.954834,541.032349 748.187134,547.039917 
	C766.057922,553.653809 777.646667,565.493774 780.130493,585.357361 
	C781.810425,598.792297 780.981750,611.480286 774.160156,623.451599 
	C766.994263,636.026978 755.428345,642.394714 742.071960,645.901611 
	C734.908630,647.782471 727.483093,648.664307 719.701538,649.998169 
M742.571655,612.952881 
	C748.864990,603.279968 749.184814,593.128723 745.110107,582.569763 
	C743.156982,577.508606 739.632019,574.169861 734.418640,572.925415 
	C729.428406,571.734314 724.359009,570.833862 719.289795,570.022522 
	C705.508606,567.816772 691.743286,568.653809 678.118103,571.117065 
	C672.652649,572.105042 667.300598,573.908997 663.908936,579.255066 
	C658.790405,587.323120 659.347168,595.862061 660.915283,604.625916 
	C662.372192,612.768982 667.542786,617.303467 675.283508,618.989319 
	C681.108032,620.257812 687.029236,621.723206 692.933289,621.844788 
	C703.496704,622.062073 714.120239,621.782043 724.639099,620.830750 
	C730.954224,620.259644 737.351868,618.560730 742.571655,612.952881 
z"/>
<path fill="#050708" opacity="1.000000" stroke="none" 
	d="
M614.239258,638.739258 
	C617.446228,641.970154 620.405029,644.947754 624.424194,648.992554 
	C608.375244,648.992554 593.950867,649.324158 579.570801,648.675293 
	C577.094604,648.563538 574.623901,644.439026 572.466980,641.899475 
	C566.875977,635.316345 561.487488,628.561523 555.931213,621.948242 
	C555.436646,621.359619 554.309326,621.041321 553.474487,621.038513 
	C537.837341,620.985779 522.199951,620.999695 506.161377,620.999695 
	C506.161377,630.295593 506.161377,639.370911 506.161377,648.720093 
	C494.694977,648.720093 483.625641,648.720093 472.277374,648.720093 
	C472.277374,630.690002 472.277374,612.622864 472.277374,594.000549 
	C474.003998,594.000549 475.771667,594.000549 477.539337,594.000549 
	C506.529022,594.000549 535.518677,594.007263 564.508362,593.996399 
	C573.030823,593.993225 578.694641,590.434082 581.142639,584.725403 
	C583.288696,579.720886 580.444702,576.440002 577.351135,574.394775 
	C574.193298,572.306946 569.828857,571.170166 565.980469,571.139343 
	C534.849609,570.890076 503.715881,570.999451 471.787445,570.999451 
	C478.772919,561.835632 485.347626,553.095825 492.109894,544.503662 
	C492.847137,543.566895 494.664337,543.066223 495.982819,543.062012 
	C521.973328,542.979614 547.997681,542.211792 573.941467,543.315918 
	C588.016785,543.915039 601.675354,548.144775 610.591736,561.025513 
	C621.812561,577.235352 616.570374,606.450012 592.985779,613.038879 
	C592.067078,613.295532 591.232605,613.853821 590.784729,614.067932 
	C598.447632,622.130981 606.219299,630.308411 614.239258,638.739258 
z"/>
<path fill="#050708" opacity="1.000000" stroke="none" 
	d="
M829.999451,548.110596 
	C829.999451,558.899536 829.999451,569.198303 829.999451,579.747437 
	C850.690613,579.747437 871.090881,579.747437 891.893799,579.747437 
	C891.893799,567.646667 891.893799,555.572571 891.893799,543.252686 
	C903.028015,543.252686 913.763794,543.252686 924.750366,543.252686 
	C924.750366,578.363708 924.750366,613.427002 924.750366,648.745117 
	C913.976501,648.745117 903.240662,648.745117 892.101868,648.745117 
	C892.101868,635.305786 892.101868,621.899414 892.101868,608.248962 
	C871.302124,608.248962 850.901917,608.248962 830.099548,608.248962 
	C830.099548,621.694153 830.099548,635.100525 830.099548,648.750488 
	C818.632263,648.750488 807.563293,648.750488 796.246582,648.750488 
	C796.246582,613.630127 796.246582,578.566895 796.246582,543.251831 
	C807.362915,543.251831 818.431763,543.251831 829.999451,543.251831 
	C829.999451,544.737061 829.999451,546.178833 829.999451,548.110596 
z"/>
<path fill="#050708" opacity="1.000000" stroke="none" 
	d="
M354.000000,570.999451 
	C344.265686,571.333008 334.883087,570.755249 325.834106,572.227783 
	C314.184387,574.123596 304.520081,583.812866 304.960205,597.020569 
	C305.248383,605.670044 312.056549,615.218872 321.194763,617.858215 
	C327.044800,619.547852 333.240784,620.762390 339.303589,620.862427 
	C360.797211,621.216858 382.300232,621.000549 403.799713,621.000549 
	C405.428833,621.000549 407.057953,621.000549 409.574615,621.000549 
	C406.365784,625.282532 403.659882,628.996338 400.842651,632.623718 
	C398.043945,636.227295 394.677063,639.476196 392.392548,643.369568 
	C389.801208,647.785950 386.581970,649.210449 381.557617,649.110291 
	C366.230743,648.804749 350.884888,649.323608 335.563843,648.896484 
	C323.398346,648.557251 311.374573,646.625000 300.443665,640.765808 
	C285.763611,632.896973 275.164001,621.281921 272.165100,604.641663 
	C267.236237,577.292480 281.528809,555.775818 307.408752,546.983154 
	C315.826538,544.123291 324.366913,542.823364 333.300537,542.917175 
	C356.797363,543.163879 380.298492,543.000549 403.797913,543.000549 
	C405.427368,543.000549 407.056854,543.000549 409.577972,543.000549 
	C405.282013,548.703186 401.446655,553.798523 397.606476,558.890198 
	C395.557556,561.606812 393.586639,564.388550 391.421600,567.009583 
	C389.401825,569.454712 387.492249,571.396423 383.489166,571.173401 
	C373.852814,570.636414 364.166290,570.999451 354.000000,570.999451 
z"/>
<path fill="#78AEC5" opacity="1.000000" stroke="none" 
	d="
M652.067993,947.088013 
	C676.781189,943.516602 700.644043,936.733032 723.801331,927.541138 
	C749.445190,917.362061 774.188965,905.272461 796.554626,888.994812 
	C809.978943,879.224548 822.842102,868.632507 835.502686,857.874634 
	C858.451111,838.375000 877.154846,815.087524 893.493835,789.950134 
	C918.871033,750.907349 936.506409,708.628784 945.107117,662.731567 
	C945.351807,661.426025 945.686768,660.137390 946.296875,658.432922 
	C946.951294,658.058289 947.288513,658.091614 947.625671,658.124878 
	C940.484680,713.428650 924.246277,765.932129 898.141296,815.194275 
	C889.197571,832.071716 879.012756,848.346008 868.490662,864.299500 
	C865.299377,869.137878 859.325195,872.361572 854.203735,875.672119 
	C800.438843,910.425903 741.999939,933.411194 678.977234,944.651306 
	C670.317200,946.195862 661.536743,947.065430 652.400635,947.987915 
	C652.015442,947.514832 652.041687,947.301453 652.067993,947.088013 
z"/>
<path fill="#28619D" opacity="1.000000" stroke="none" 
	d="
M246.897156,654.045349 
	C250.870773,680.106567 258.366547,705.228638 268.357635,729.517822 
	C280.161102,758.212891 295.332825,785.048950 314.161377,809.878845 
	C327.293182,827.196289 341.752350,843.232300 357.629425,857.917358 
	C376.122650,875.022156 396.363586,889.934753 418.181183,902.648865 
	C438.746490,914.633118 460.193481,924.634094 482.824493,932.060120 
	C483.302246,932.216919 483.668121,932.714600 483.708557,933.887878 
	C475.231201,931.465698 466.703613,929.205444 458.284760,926.594543 
	C409.894958,911.587402 365.107666,889.288879 323.958160,859.744385 
	C321.202393,857.765808 318.733521,855.048950 316.891724,852.186096 
	C279.131805,793.492249 255.802673,729.459778 246.264862,660.363464 
	C246.014481,658.549561 245.886246,656.718689 245.985413,654.458862 
	C246.478928,654.029724 246.688034,654.037537 246.897156,654.045349 
z"/>
<path fill="#78AEC5" opacity="1.000000" stroke="none" 
	d="
M946.101990,535.955750 
	C939.441467,497.290070 925.849915,461.050995 907.205017,426.691071 
	C895.723450,405.532227 881.826721,386.005249 866.239441,367.582703 
	C839.618042,336.118896 808.358582,310.428558 772.718628,289.887177 
	C752.841431,278.430756 732.074951,268.994537 710.184326,261.310608 
	C710.011292,260.992920 709.984009,261.032593 709.984009,261.032593 
	C717.850830,262.971954 725.822937,264.563599 733.567444,266.907196 
	C783.050354,281.881378 828.789551,304.520416 870.530273,335.012512 
	C874.877686,338.188293 877.942139,343.438934 880.882019,348.173767 
	C911.928101,398.175293 932.636597,452.225281 943.658936,510.000061 
	C945.245117,518.314148 946.320801,526.725586 947.378845,535.512573 
	C946.783997,535.940674 946.442993,535.948242 946.101990,535.955750 
z"/>
<path fill="#050708" opacity="1.000000" stroke="none" 
	d="
M420.000580,606.000000 
	C420.000580,584.860474 420.000580,564.220947 420.000580,543.291382 
	C431.282013,543.291382 442.352173,543.291382 453.712097,543.291382 
	C453.712097,578.287720 453.712097,613.352356 453.712097,648.708618 
	C442.718140,648.708618 431.647888,648.708618 420.000580,648.708618 
	C420.000580,634.688599 420.000580,620.594299 420.000580,606.000000 
z"/>
<path fill="#ACB6D4" opacity="1.000000" stroke="none" 
	d="
M549.866760,7.318257 
	C557.639221,6.868843 565.406677,6.248659 573.185669,6.018682 
	C580.762329,5.794686 588.350830,5.970014 592.560181,5.970014 
	C580.883667,6.769714 565.801025,7.802698 550.301514,8.541777 
	C549.887817,7.937825 549.881897,7.627954 549.866760,7.318257 
z"/>
<path fill="#B8D2E0" opacity="1.000000" stroke="none" 
	d="
M651.640930,947.042969 
	C652.041687,947.301453 652.015442,947.514832 651.951965,948.050903 
	C640.917297,949.233521 629.919922,950.093445 618.461426,950.976379 
	C618.000305,950.999329 618.021851,951.014343 618.021851,951.014343 
	C623.190491,950.355530 628.355835,949.669373 633.528625,949.045044 
	C639.420288,948.333923 645.318481,947.677979 651.640930,947.042969 
z"/>
<path fill="#5D7DB0" opacity="1.000000" stroke="none" 
	d="
M676.654907,1181.102051 
	C677.901245,1181.434448 678.726257,1181.719482 679.891357,1182.080566 
	C672.124878,1183.202637 664.018433,1184.248535 655.470337,1185.013184 
	C655.036011,1184.530762 655.043335,1184.329590 655.050720,1184.128418 
	C662.111694,1183.103760 669.172668,1182.079224 676.654907,1181.102051 
z"/>
<path fill="#A1C4D5" opacity="1.000000" stroke="none" 
	d="
M946.060181,536.378052 
	C946.442993,535.948242 946.783997,535.940674 947.376831,535.902710 
	C948.627136,544.524597 949.625549,553.176819 950.624023,561.829102 
	C950.251465,561.870728 949.878906,561.912354 949.506348,561.953918 
	C948.343689,553.569397 947.181030,545.184875 946.060181,536.378052 
z"/>
<path fill="#A0C3D4" opacity="1.000000" stroke="none" 
	d="
M947.766907,657.701416 
	C947.288513,658.091614 946.951294,658.058289 946.359253,658.034424 
	C947.173584,649.737122 948.242920,641.430420 949.312256,633.123657 
	C949.684387,633.157837 950.056580,633.192017 950.428711,633.226196 
	C949.588501,641.243469 948.748291,649.260681 947.766907,657.701416 
z"/>
<path fill="#7E93BE" opacity="1.000000" stroke="none" 
	d="
M549.462402,7.316565 
	C549.881897,7.627954 549.887817,7.937825 549.880615,8.480292 
	C543.190918,9.492463 536.505310,10.272215 529.386230,10.982758 
	C528.969543,10.722777 528.986267,10.532007 528.999756,10.053968 
	C535.683716,8.949423 542.370850,8.132148 549.462402,7.316565 
z"/>
<path fill="#B3BCD8" opacity="1.000000" stroke="none" 
	d="
M632.007385,1187.061035 
	C626.312622,1187.392456 620.621155,1187.811523 614.921997,1188.025879 
	C610.864624,1188.178467 606.796875,1188.055420 602.686768,1187.529541 
	C612.192383,1187.040771 621.697937,1186.551880 631.616394,1186.331299 
	C632.029297,1186.599487 632.007385,1187.061035 632.007385,1187.061035 
z"/>
<path fill="#8D9DC4" opacity="1.000000" stroke="none" 
	d="
M632.472290,1187.047607 
	C632.007385,1187.061035 632.029297,1186.599487 632.046265,1186.369629 
	C639.439148,1185.435303 646.815125,1184.731079 654.620911,1184.077637 
	C655.043335,1184.329590 655.036011,1184.530762 655.010986,1185.034546 
	C647.641235,1185.902710 640.289246,1186.468384 632.472290,1187.047607 
z"/>
<path fill="#738AB8" opacity="1.000000" stroke="none" 
	d="
M246.958527,653.619690 
	C246.688034,654.037537 246.478928,654.029724 245.955811,654.012939 
	C245.045715,648.299561 244.449600,642.595032 244.079697,636.468506 
	C244.480682,636.063477 244.655457,636.080444 244.830231,636.097473 
	C245.560120,641.796326 246.290009,647.495178 246.958527,653.619690 
z"/>
<path fill="#ACB6D4" opacity="1.000000" stroke="none" 
	d="
M244.886230,635.672852 
	C244.655457,636.080444 244.480682,636.063477 244.044601,636.006226 
	C243.128250,629.349792 242.473175,622.733459 241.818100,616.117188 
	C242.144302,616.088989 242.470505,616.060791 242.796707,616.032532 
	C243.511871,622.437744 244.227051,628.842957 244.886230,635.672852 
z"/>
<path fill="#78AEC5" opacity="1.000000" stroke="none" 
	d="
M710.028687,260.976196 
	C709.278931,260.959503 708.511841,260.959503 707.744751,260.959503 
	C707.741882,260.745850 707.738953,260.532227 707.736023,260.318573 
	C708.388794,260.364746 709.041565,260.410889 709.839172,260.744812 
	C709.984009,261.032593 710.011292,260.992920 710.028687,260.976196 
z"/>
<path fill="#265F9C" opacity="1.000000" stroke="none" 
	d="
M229.521057,1005.414368 
	C228.938126,1005.185730 228.604523,1004.747681 228.270935,1004.309570 
	C228.817413,1004.289307 229.363907,1004.268982 230.072266,1004.498230 
	C230.079559,1004.900085 229.924988,1005.052490 229.521057,1005.414368 
z"/>
<path fill="#75ACC4" opacity="1.000000" stroke="none" 
	d="
M189.871429,228.873169 
	C189.979004,228.614456 190.146698,228.413620 190.314392,228.212799 
	C190.354843,228.429489 190.395294,228.646179 190.244537,228.954025 
	C190.053360,229.045181 189.931564,228.931061 189.871429,228.873169 
z"/>
<path fill="#75ACC4" opacity="1.000000" stroke="none" 
	d="
M846.919983,885.924561 
	C847.012390,885.675232 847.140076,885.458435 847.267822,885.241638 
	C847.317810,885.444580 847.367737,885.647583 847.222168,885.936035 
	C847.026550,886.021606 846.955322,885.957031 846.919983,885.924561 
z"/>
<path fill="#B8D2E0" opacity="1.000000" stroke="none" 
	d="
M617.992554,950.988770 
	C617.917969,951.027832 617.851135,951.077515 617.903076,951.070740 
	C618.021851,951.014343 618.000305,950.999329 617.992554,950.988770 
z"/>
<path fill="#75ACC4" opacity="1.000000" stroke="none" 
	d="
M1004.086182,965.094177 
	C1003.967896,965.395874 1003.752197,965.598511 1003.536499,965.801147 
	C1003.486450,965.546387 1003.436462,965.291565 1003.588379,964.918701 
	C1003.790283,964.800659 1003.988770,964.995117 1004.086182,965.094177 
z"/>
<path fill="#FFFFFF" opacity="1.000000" stroke="none" 
	d="
M742.296021,613.210083 
	C737.351868,618.560730 730.954224,620.259644 724.639099,620.830750 
	C714.120239,621.782043 703.496704,622.062073 692.933289,621.844788 
	C687.029236,621.723206 681.108032,620.257812 675.283508,618.989319 
	C667.542786,617.303467 662.372192,612.768982 660.915283,604.625916 
	C659.347168,595.862061 658.790405,587.323120 663.908936,579.255066 
	C667.300598,573.908997 672.652649,572.105042 678.118103,571.117065 
	C691.743286,568.653809 705.508606,567.816772 719.289795,570.022522 
	C724.359009,570.833862 729.428406,571.734314 734.418640,572.925415 
	C739.632019,574.169861 743.156982,577.508606 745.110107,582.569763 
	C749.184814,593.128723 748.864990,603.279968 742.296021,613.210083 
z"/>
</svg>
