<svg version="1.1" id="Layer_1" xmlns="http://www.w3.org/2000/svg" xmlns:xlink="http://www.w3.org/1999/xlink" x="0px" y="0px"
	 width="100%" viewBox="0 0 596 596" enable-background="new 0 0 596 596" xml:space="preserve">
<path fill="#FEFEFE" opacity="1.000000" stroke="none" 
	d="
M1.000000,207.000000 
	C1.000000,138.000015 1.000000,69.500038 1.000000,1.000046 
	C199.666580,1.000031 398.333160,1.000031 596.999817,1.000015 
	C596.999878,199.666519 596.999878,398.333038 596.999939,596.999634 
	C398.333527,596.999756 199.667068,596.999756 1.000297,596.999878 
	C1.000000,467.166656 1.000000,337.333344 1.000000,207.000000 
M503.510040,482.066193 
	C503.800812,481.839203 504.091614,481.612213 505.029114,481.174500 
	C516.497559,469.853241 529.126953,459.476196 539.234680,447.048248 
	C584.498291,391.394012 601.726562,327.256500 588.295044,257.145233 
	C571.339661,168.639633 518.424866,108.648804 433.915436,77.311928 
	C400.450867,64.902977 365.443481,62.242870 330.084473,66.248703 
	C318.575073,67.552605 307.155273,70.253502 295.917816,73.174522 
	C285.582855,75.860947 279.667297,84.716309 279.821228,95.203056 
	C279.995087,107.044342 288.696045,116.729813 302.191071,118.856987 
	C313.827759,120.691238 325.700745,121.041527 337.326324,122.928596 
	C390.776398,131.604630 436.045990,155.898041 473.067749,195.364685 
	C511.142883,235.954330 532.197754,284.307953 536.697815,339.598663 
	C539.286255,371.401917 536.198914,402.945892 525.143066,433.061157 
	C519.148621,449.389526 510.985443,464.921722 503.374176,481.086212 
	C503.261017,481.397156 503.147858,481.708069 502.741516,482.160034 
	C502.813873,482.091003 502.886261,482.021973 503.510040,482.066193 
M240.636002,10.747859 
	C238.461777,10.663385 236.162521,10.069242 234.131287,10.567597 
	C136.397369,34.546467 67.254829,92.765961 26.353279,184.578857 
	C22.450623,193.339264 19.558559,202.549866 15.921395,212.290451 
	C17.253443,211.710342 17.669146,211.665115 17.778368,211.458145 
	C18.242365,210.578903 18.636200,209.660324 19.018824,208.740784 
	C37.290730,164.829208 66.021683,129.376953 105.054115,102.224495 
	C107.206276,100.727364 109.026604,98.753220 111.469933,97.253151 
	C111.670540,97.542419 111.871147,97.831688 111.841362,98.755035 
	C70.904671,154.763382 56.152142,217.022415 69.175346,285.125793 
	C79.852173,340.959015 108.186310,386.700928 152.745941,422.990387 
	C153.063446,423.197906 153.380951,423.405396 153.698441,423.612915 
	C153.539536,423.007172 153.380630,422.401428 153.074890,421.066528 
	C152.368790,419.026245 151.662674,416.985931 151.680130,414.937897 
	C155.395462,420.195679 158.104996,426.789307 163.002533,430.477020 
	C182.815125,445.395142 204.967224,456.077332 228.658615,463.489838 
	C229.574097,463.776306 230.583084,463.763947 231.548523,463.890808 
	C205.690262,452.198029 183.333527,436.141296 164.806183,414.799194 
	C146.337784,393.525024 134.006714,368.954742 126.068321,341.987488 
	C129.902542,366.091766 137.834534,388.669525 149.126816,410.090179 
	C149.939972,411.632660 150.390656,413.366241 150.381561,415.505066 
	C149.316406,413.834076 148.113800,412.234314 147.206100,410.481781 
	C119.783691,357.535614 112.555405,301.874298 126.087143,243.879196 
	C148.077332,149.632385 226.735519,75.014633 328.540771,62.252552 
	C381.524109,55.610672 431.534393,65.933708 477.944122,92.731575 
	C478.811707,93.232513 479.811890,93.503746 480.750214,93.882164 
	C478.381561,89.368721 475.390625,85.661644 472.150024,82.187416 
	C427.955688,34.806763 373.638885,9.035328 308.793518,5.824563 
	C285.517242,4.672056 262.618500,7.299404 240.010757,12.288380 
	C240.016800,11.913393 240.022827,11.538405 240.636002,10.747859 
M394.338623,574.247498 
	C380.496521,579.266174 366.654388,584.284851 352.812286,589.303528 
	C413.756836,578.068298 466.018188,550.337402 509.584900,506.307251 
	C540.335571,475.229431 580.503845,407.766846 578.444275,390.701660 
	C577.638184,392.336517 577.030884,393.458771 576.518799,394.622894 
	C564.247498,422.520203 547.559204,447.488007 525.466064,468.463409 
	C512.493347,480.779816 498.336853,491.849426 484.689484,503.452393 
	C484.626587,503.505859 484.226929,503.163208 483.867096,502.300964 
	C484.126770,501.876862 484.354767,501.429138 484.650604,501.031982 
	C525.071655,446.767822 540.770935,386.142761 529.849182,319.323395 
	C520.482483,262.018341 492.498260,214.947906 448.117432,177.593292 
	C447.125916,176.758743 445.774048,176.352356 443.651184,175.265427 
	C464.224335,209.507141 475.438660,245.413361 477.767761,283.933685 
	C480.896942,335.685852 469.109802,384.085388 440.709900,427.414062 
	C397.822510,492.845886 336.760712,529.738098 258.697845,536.700989 
	C209.646561,541.076233 163.453629,530.218689 120.586983,505.725250 
	C119.170448,504.915863 117.469788,504.603729 116.274643,503.645996 
	C115.999252,503.590149 115.723862,503.534271 115.448486,503.478394 
	C115.638863,503.647461 115.829239,503.816528 116.153687,504.650085 
	C122.869843,512.026672 129.112823,519.909424 136.377182,526.699524 
	C193.259476,579.867920 260.366486,600.567322 337.368652,589.250366 
	C356.888031,586.381592 375.440521,580.166016 394.164490,573.047424 
	C394.429382,573.324951 394.694275,573.602478 394.338623,574.247498 
M82.620239,472.897278 
	C83.650276,473.742279 84.693321,474.571991 85.708519,475.434479 
	C141.361053,522.716858 205.413071,541.256409 277.504150,530.053223 
	C335.122406,521.099182 382.377930,493.124817 419.961578,448.667877 
	C420.720612,447.769989 421.270691,446.695435 421.918243,445.703308 
	C373.449890,472.547150 322.152374,483.300934 267.353149,476.102997 
	C212.343277,468.877380 165.458832,445.003052 127.100945,405.181458 
	C89.643799,366.294983 67.805901,319.682709 61.929890,265.824463 
	C56.072018,212.132477 67.683296,162.219543 94.739235,115.592644 
	C80.654945,126.083260 68.326271,138.144485 57.607956,151.784180 
	C10.757542,211.404160 -4.443823,278.509888 11.759759,352.354095 
	C22.162140,399.760620 46.600792,439.457336 82.620239,472.897278 
M453.505829,47.008648 
	C429.363831,32.310837 392.974792,16.514914 385.479950,17.479662 
	C432.945374,37.752720 461.078247,59.714046 492.981262,101.260307 
	C494.367859,103.066032 496.242706,104.569656 498.096893,105.932732 
	C535.089233,133.127106 562.272766,167.946030 579.541931,210.497086 
	C579.840637,211.232986 580.257629,211.920837 580.619385,212.631119 
	C559.019714,141.791168 516.686829,86.817245 453.505829,47.008648 
M38.122143,438.348450 
	C56.507343,472.462646 80.574844,501.938171 110.394669,526.687134 
	C138.805130,550.266357 194.694473,580.109497 210.690277,580.332642 
	C210.633545,580.177612 210.621674,579.940002 210.512833,579.880798 
	C209.789108,579.487305 209.062851,579.088562 208.304291,578.770508 
	C166.298706,561.161255 131.891922,533.967468 105.133087,497.090240 
	C103.984772,495.507660 102.515877,494.055115 100.932182,492.906067 
	C63.771069,465.942566 36.361427,431.309204 18.865452,388.842377 
	C18.447767,387.828552 17.758568,386.926636 17.196005,385.972504 
	C16.554455,386.301880 15.912902,386.631256 15.271350,386.960663 
	C22.786776,403.863983 30.302198,420.767334 38.122143,438.348450 
M373.158112,322.829620 
	C386.175415,317.675049 391.398193,309.921631 390.836029,296.586060 
	C390.336395,284.732727 384.311157,276.876099 372.331085,273.557190 
	C359.087982,269.888336 345.636871,269.879913 332.392609,273.530518 
	C319.674286,277.036133 313.863739,285.258545 313.919830,298.511566 
	C313.974152,311.346161 319.935852,319.573364 332.426208,322.980713 
	C345.674896,326.594879 359.058167,326.337372 373.158112,322.829620 
M257.500397,285.842896 
	C261.830688,285.842896 266.161041,285.824341 270.491211,285.847778 
	C275.486176,285.874817 280.489563,285.777100 285.472687,286.044006 
	C288.764343,286.220337 291.841003,288.092407 291.294586,291.483124 
	C290.956024,293.584106 288.196716,295.735748 286.015900,296.958252 
	C284.301605,297.919159 281.810028,297.649261 279.662781,297.656738 
	C265.528046,297.705963 251.393005,297.682159 237.187866,297.682159 
	C237.187866,306.813873 237.187866,315.560211 237.187866,324.473724 
	C242.540756,324.473724 247.623062,324.473724 253.264679,324.473724 
	C253.264679,319.853577 253.264679,315.457855 253.264679,310.842896 
	C257.978882,310.842896 262.218323,311.374969 266.272339,310.734100 
	C275.199951,309.322845 281.528992,312.474792 286.139832,320.082214 
	C287.264465,321.937805 289.321594,324.336029 291.112610,324.481415 
	C297.630371,325.010437 304.217102,324.690277 311.980835,324.690277 
	C308.588684,321.140289 306.150726,318.466949 303.578217,315.930115 
	C300.873047,313.262451 298.039093,310.725433 294.750092,307.653748 
	C302.783508,305.132751 307.410980,300.636230 308.201447,293.019928 
	C309.296295,282.470795 303.531494,274.415833 291.737244,273.245544 
	C277.549103,271.837708 263.172394,272.324127 248.876541,272.028503 
	C248.281250,272.016144 247.444260,272.201355 247.114502,272.611664 
	C243.772476,276.770203 240.512665,280.994873 236.728790,285.842896 
	C244.179245,285.842896 250.340042,285.842896 257.500397,285.842896 
M445.672302,304.537445 
	C446.100647,311.204987 446.528992,317.872498 446.945923,324.362457 
	C452.407867,324.362457 457.496674,324.362457 462.556854,324.362457 
	C462.556854,306.763428 462.556854,289.521790 462.556854,272.169250 
	C457.156433,272.169250 452.047974,272.169250 446.397888,272.169250 
	C446.397888,278.241852 446.397888,284.148804 446.397888,290.125305 
	C435.792755,290.125305 425.732971,290.125305 415.153198,290.125305 
	C415.153198,283.913300 415.153198,278.033722 415.153198,272.200592 
	C409.515320,272.200592 404.405029,272.200592 399.288910,272.200592 
	C399.288910,289.767426 399.288910,307.119446 399.288910,324.448029 
	C404.748108,324.448029 409.829071,324.448029 415.555206,324.448029 
	C415.555206,317.643799 415.555206,311.094757 415.555206,304.349762 
	C425.688843,304.349762 435.172119,304.349762 445.672302,304.537445 
M157.454819,323.148926 
	C169.385910,323.659729 181.316544,324.182739 193.249557,324.643860 
	C193.822983,324.666016 194.611938,324.298218 194.971771,323.848816 
	C198.215683,319.797028 201.386124,315.686432 205.046860,310.991913 
	C202.131226,310.991913 200.305298,310.992706 198.479355,310.991760 
	C188.161011,310.986420 177.840805,311.098816 167.524948,310.935822 
	C159.965378,310.816376 154.178146,306.682739 153.035599,301.034149 
	C151.446259,293.176727 157.242874,286.303467 166.229248,285.964172 
	C174.539032,285.650330 182.870056,285.935516 191.188232,285.775085 
	C192.660110,285.746704 194.610519,285.255646 195.488617,284.241272 
	C198.690338,280.542664 201.531357,276.531799 204.910370,272.112823 
	C190.441788,272.112823 176.810257,271.581543 163.239502,272.262146 
	C149.645386,272.943939 139.264740,281.450714 136.963791,292.245514 
	C134.022339,306.045135 141.276627,317.367615 157.454819,323.148926 
M462.889709,366.340637 
	C439.875336,419.712952 400.008209,454.012970 344.602020,471.055542 
	C346.715759,471.276520 348.750793,471.209961 350.696350,470.758026 
	C379.659363,464.030792 406.637573,452.681671 431.216461,435.855560 
	C433.081024,434.579102 434.731781,432.778015 436.019104,430.903015 
	C451.234283,408.742188 461.919708,384.494019 468.779419,358.559021 
	C470.654480,351.469910 471.885193,344.210388 473.411591,337.029053 
	C473.180023,336.991638 472.948456,336.954224 472.716888,336.916779 
	C469.530060,346.484009 466.343201,356.051208 462.889709,366.340637 
M411.748016,152.765747 
	C397.387115,144.205643 371.503052,133.974030 365.859680,134.582184 
	C422.295197,159.588806 458.010345,202.038986 472.827087,263.268005 
	C472.827087,260.625854 473.056915,259.102997 472.792816,257.671234 
	C468.420593,233.967697 461.005707,211.258636 449.716431,189.943436 
	C443.999207,179.148819 438.998230,167.656433 427.025269,161.701355 
	C421.973938,159.188934 417.270386,155.977249 411.748016,152.765747 
M210.830292,304.499756 
	C210.830292,311.106384 210.830292,317.713043 210.830292,324.450317 
	C216.502716,324.450317 221.585709,324.450317 226.870453,324.450317 
	C226.870453,306.946594 226.870453,289.694305 226.870453,272.281250 
	C221.486557,272.281250 216.265076,272.281250 210.830276,272.281250 
	C210.830276,282.875183 210.830276,293.187500 210.830292,304.499756 
z"/>
<path fill="#26609C" opacity="1.000000" stroke="none" 
	d="
M150.956558,414.945648 
	C151.662674,416.985931 152.368790,419.026245 152.947998,421.605652 
	C152.689484,422.263336 152.557861,422.381836 152.426224,422.500305 
	C108.186310,386.700928 79.852173,340.959015 69.175346,285.125793 
	C56.152142,217.022415 70.904671,154.763382 112.260468,98.261276 
	C113.458389,96.185684 114.237206,94.603844 115.008926,93.011597 
	C115.001831,93.001175 115.024551,93.012543 115.324677,93.270401 
	C117.246506,91.361893 118.868217,89.195526 120.504990,87.023453 
	C120.520050,87.017738 120.528923,86.986778 120.894066,86.969322 
	C124.053352,83.920135 126.943695,80.968056 129.569550,77.796967 
	C130.175827,77.064789 129.876816,75.582977 130.204407,74.275024 
	C131.423630,73.068474 132.432846,72.033020 133.611084,71.237701 
	C133.973007,71.444626 134.165939,71.411407 134.506836,71.687836 
	C135.181580,71.657066 135.708359,71.316643 136.523071,70.835381 
	C154.078354,54.386875 172.956284,40.184795 194.580368,30.324226 
	C209.319092,23.603382 224.847488,18.614290 240.022797,12.850872 
	C262.618500,7.299404 285.517242,4.672056 308.793518,5.824563 
	C373.638885,9.035328 427.955688,34.806763 472.150024,82.187416 
	C475.390625,85.661644 478.381561,89.368721 480.750214,93.882164 
	C479.811890,93.503746 478.811707,93.232513 477.944122,92.731575 
	C431.534393,65.933708 381.524109,55.610672 328.540771,62.252552 
	C226.735519,75.014633 148.077332,149.632385 126.087143,243.879196 
	C112.555405,301.874298 119.783691,357.535614 147.206100,410.481781 
	C148.113800,412.234314 149.316406,413.834076 150.693329,415.233032 
	C151.005096,414.960968 150.956558,414.945648 150.956558,414.945648 
z"/>
<path fill="#76ACC4" opacity="1.000000" stroke="none" 
	d="
M82.362396,472.656616 
	C46.600792,439.457336 22.162140,399.760620 11.759759,352.354095 
	C-4.443823,278.509888 10.757542,211.404160 57.607956,151.784180 
	C68.326271,138.144485 80.654945,126.083260 94.739235,115.592644 
	C67.683296,162.219543 56.072018,212.132477 61.929890,265.824463 
	C67.805901,319.682709 89.643799,366.294983 127.100945,405.181458 
	C165.458832,445.003052 212.343277,468.877380 267.353149,476.102997 
	C322.152374,483.300934 373.449890,472.547150 421.918243,445.703308 
	C421.270691,446.695435 420.720612,447.769989 419.961578,448.667877 
	C382.377930,493.124817 335.122406,521.099182 277.504150,530.053223 
	C205.413071,541.256409 141.361053,522.716858 85.708519,475.434479 
	C84.693321,474.571991 83.650276,473.742279 82.362396,472.656616 
z"/>
<path fill="#26609C" opacity="1.000000" stroke="none" 
	d="
M393.643951,572.778992 
	C375.440521,580.166016 356.888031,586.381592 337.368652,589.250366 
	C260.366486,600.567322 193.259476,579.867920 136.377182,526.699524 
	C129.112823,519.909424 122.869843,512.026672 116.058220,504.338104 
	C115.962753,504.026123 115.901581,504.059814 115.901581,504.059814 
	C117.469788,504.603729 119.170448,504.915863 120.586983,505.725250 
	C163.453629,530.218689 209.646561,541.076233 258.697845,536.700989 
	C336.760712,529.738098 397.822510,492.845886 440.709900,427.414062 
	C469.109802,384.085388 480.896942,335.685852 477.767761,283.933685 
	C475.438660,245.413361 464.224335,209.507141 443.651184,175.265427 
	C445.774048,176.352356 447.125916,176.758743 448.117432,177.593292 
	C492.498260,214.947906 520.482483,262.018341 529.849182,319.323395 
	C540.770935,386.142761 525.071655,446.767822 484.650604,501.031982 
	C484.354767,501.429138 484.126770,501.876862 483.948303,502.650574 
	C484.029510,503.000183 484.018738,502.954681 483.701843,502.927429 
	C483.239136,503.274261 483.093323,503.648407 482.977234,504.016663 
	C483.006897,504.010834 483.000824,503.950623 482.670593,504.021484 
	C481.212036,505.730072 480.083740,507.367767 478.985229,509.007690 
	C479.014984,509.009918 479.020691,508.950500 478.714966,508.953796 
	C478.254333,509.312592 478.099457,509.668121 477.974182,510.017853 
	C478.003784,510.012054 478.002960,509.951813 477.744568,509.982239 
	C477.298523,510.295044 477.110870,510.577393 476.619568,511.005676 
	C462.768066,526.778870 447.672699,540.766113 430.260406,551.913147 
	C418.444733,559.477356 405.875946,565.865112 393.643951,572.778992 
z"/>
<path fill="#76ACC4" opacity="1.000000" stroke="none" 
	d="
M503.800537,480.813049 
	C510.985443,464.921722 519.148621,449.389526 525.143066,433.061157 
	C536.198914,402.945892 539.286255,371.401917 536.697815,339.598663 
	C532.197754,284.307953 511.142883,235.954330 473.067749,195.364685 
	C436.045990,155.898041 390.776398,131.604630 337.326324,122.928596 
	C325.700745,121.041527 313.827759,120.691238 302.191071,118.856987 
	C288.696045,116.729813 279.995087,107.044342 279.821228,95.203056 
	C279.667297,84.716309 285.582855,75.860947 295.917816,73.174522 
	C307.155273,70.253502 318.575073,67.552605 330.084473,66.248703 
	C365.443481,62.242870 400.450867,64.902977 433.915436,77.311928 
	C518.424866,108.648804 571.339661,168.639633 588.295044,257.145233 
	C601.726562,327.256500 584.498291,391.394012 539.234680,447.048248 
	C529.126953,459.476196 516.497559,469.853241 504.560120,481.134033 
	C504.091095,481.093536 503.800537,480.813049 503.800537,480.813049 
z"/>
<path fill="#2B639E" opacity="1.000000" stroke="none" 
	d="
M484.007019,503.002869 
	C484.226929,503.163208 484.626587,503.505859 484.689484,503.452393 
	C498.336853,491.849426 512.493347,480.779816 525.466064,468.463409 
	C547.559204,447.488007 564.247498,422.520203 576.518799,394.622894 
	C577.030884,393.458771 577.638184,392.336517 578.444275,390.701660 
	C580.503845,407.766846 540.335571,475.229431 509.584900,506.307251 
	C466.018188,550.337402 413.756836,578.068298 352.812286,589.303528 
	C366.654388,584.284851 380.496521,579.266174 395.008759,574.042236 
	C400.892426,571.253662 406.206879,568.854126 411.302399,566.055847 
	C436.776672,552.066040 459.359650,534.482788 478.240723,511.656311 
	C478.364929,510.873627 478.183929,510.412720 478.002960,509.951813 
	C478.002960,509.951813 478.003784,510.012054 478.383667,510.212463 
	C478.849274,509.925446 478.934998,509.437958 479.020691,508.950500 
	C479.020691,508.950500 479.014984,509.009918 479.279663,509.323669 
	C480.696472,507.741821 481.848633,505.846222 483.000793,503.950623 
	C483.000824,503.950623 483.006897,504.010834 483.384796,504.210693 
	C483.848022,503.925293 483.933380,503.439972 484.018738,502.954681 
	C484.018738,502.954681 484.029510,503.000183 484.007019,503.002869 
z"/>
<path fill="#2A639E" opacity="1.000000" stroke="none" 
	d="
M120.528923,86.986778 
	C120.528923,86.986778 120.520050,87.017738 120.220657,86.688179 
	C118.289024,88.576591 116.656792,90.794571 115.024551,93.012543 
	C115.024551,93.012543 115.001831,93.001175 114.704132,92.805763 
	C113.271416,94.073944 112.136406,95.537537 111.001389,97.001122 
	C109.026604,98.753220 107.206276,100.727364 105.054115,102.224495 
	C66.021683,129.376953 37.290730,164.829208 19.018824,208.740784 
	C18.636200,209.660324 18.242365,210.578903 17.778368,211.458145 
	C17.669146,211.665115 17.253443,211.710342 15.921395,212.290451 
	C19.558559,202.549866 22.450623,193.339264 26.353279,184.578857 
	C67.254829,92.765961 136.397369,34.546467 234.131287,10.567597 
	C236.162521,10.069242 238.461777,10.663385 239.943146,10.918283 
	C198.689148,21.712305 163.592911,41.987770 133.442078,70.997574 
	C132.432846,72.033020 131.423630,73.068474 129.983002,74.554535 
	C127.856140,76.807755 125.989464,78.481796 124.512596,80.448547 
	C122.987335,82.479752 121.841019,84.795509 120.528923,86.986778 
z"/>
<path fill="#2B639F" opacity="1.000000" stroke="none" 
	d="
M453.816895,47.195847 
	C516.686829,86.817245 559.019714,141.791168 580.619385,212.631119 
	C580.257629,211.920837 579.840637,211.232986 579.541931,210.497086 
	C562.272766,167.946030 535.089233,133.127106 498.096893,105.932732 
	C496.242706,104.569656 494.367859,103.066032 492.981262,101.260307 
	C461.078247,59.714046 432.945374,37.752720 385.479950,17.479662 
	C392.974792,16.514914 429.363831,32.310837 453.816895,47.195847 
z"/>
<path fill="#2B639E" opacity="1.000000" stroke="none" 
	d="
M37.969883,438.009552 
	C30.302198,420.767334 22.786776,403.863983 15.271350,386.960663 
	C15.912902,386.631256 16.554455,386.301880 17.196005,385.972504 
	C17.758568,386.926636 18.447767,387.828552 18.865452,388.842377 
	C36.361427,431.309204 63.771069,465.942566 100.932182,492.906067 
	C102.515877,494.055115 103.984772,495.507660 105.133087,497.090240 
	C131.891922,533.967468 166.298706,561.161255 208.304291,578.770508 
	C209.062851,579.088562 209.789108,579.487305 210.512833,579.880798 
	C210.621674,579.940002 210.633545,580.177612 210.690277,580.332642 
	C194.694473,580.109497 138.805130,550.266357 110.394669,526.687134 
	C80.574844,501.938171 56.507343,472.462646 37.969883,438.009552 
z"/>
<path fill="#0A0C0D" opacity="1.000000" stroke="none" 
	d="
M372.768677,322.922729 
	C359.058167,326.337372 345.674896,326.594879 332.426208,322.980713 
	C319.935852,319.573364 313.974152,311.346161 313.919830,298.511566 
	C313.863739,285.258545 319.674286,277.036133 332.392609,273.530518 
	C345.636871,269.879913 359.087982,269.888336 372.331085,273.557190 
	C384.311157,276.876099 390.336395,284.732727 390.836029,296.586060 
	C391.398193,309.921631 386.175415,317.675049 372.768677,322.922729 
M368.743317,309.549377 
	C373.956177,306.043793 375.566772,301.213409 374.030060,293.791809 
	C372.951996,288.585297 369.284332,286.045166 364.459198,285.849243 
	C356.193481,285.513641 347.847717,285.257446 339.637299,286.037964 
	C332.815582,286.686493 330.233795,290.699066 330.099487,297.846344 
	C329.960938,305.219147 332.661346,310.047546 339.296387,310.481598 
	C348.816101,311.104370 358.438019,310.164062 368.743317,309.549377 
z"/>
<path fill="#0A0C0D" opacity="1.000000" stroke="none" 
	d="
M257.000610,285.842896 
	C250.340042,285.842896 244.179245,285.842896 236.728790,285.842896 
	C240.512665,280.994873 243.772476,276.770203 247.114502,272.611664 
	C247.444260,272.201355 248.281250,272.016144 248.876541,272.028503 
	C263.172394,272.324127 277.549103,271.837708 291.737244,273.245544 
	C303.531494,274.415833 309.296295,282.470795 308.201447,293.019928 
	C307.410980,300.636230 302.783508,305.132751 294.750092,307.653748 
	C298.039093,310.725433 300.873047,313.262451 303.578217,315.930115 
	C306.150726,318.466949 308.588684,321.140289 311.980835,324.690277 
	C304.217102,324.690277 297.630371,325.010437 291.112610,324.481415 
	C289.321594,324.336029 287.264465,321.937805 286.139832,320.082214 
	C281.528992,312.474792 275.199951,309.322845 266.272339,310.734100 
	C262.218323,311.374969 257.978882,310.842896 253.264679,310.842896 
	C253.264679,315.457855 253.264679,319.853577 253.264679,324.473724 
	C247.623062,324.473724 242.540756,324.473724 237.187866,324.473724 
	C237.187866,315.560211 237.187866,306.813873 237.187866,297.682159 
	C251.393005,297.682159 265.528046,297.705963 279.662781,297.656738 
	C281.810028,297.649261 284.301605,297.919159 286.015900,296.958252 
	C288.196716,295.735748 290.956024,293.584106 291.294586,291.483124 
	C291.841003,288.092407 288.764343,286.220337 285.472687,286.044006 
	C280.489563,285.777100 275.486176,285.874817 270.491211,285.847778 
	C266.161041,285.824341 261.830688,285.842896 257.000610,285.842896 
z"/>
<path fill="#0C0E0F" opacity="1.000000" stroke="none" 
	d="
M445.163849,304.443604 
	C435.172119,304.349762 425.688843,304.349762 415.555206,304.349762 
	C415.555206,311.094757 415.555206,317.643799 415.555206,324.448029 
	C409.829071,324.448029 404.748108,324.448029 399.288910,324.448029 
	C399.288910,307.119446 399.288910,289.767426 399.288910,272.200592 
	C404.405029,272.200592 409.515320,272.200592 415.153198,272.200592 
	C415.153198,278.033722 415.153198,283.913300 415.153198,290.125305 
	C425.732971,290.125305 435.792755,290.125305 446.397888,290.125305 
	C446.397888,284.148804 446.397888,278.241852 446.397888,272.169250 
	C452.047974,272.169250 457.156433,272.169250 462.556854,272.169250 
	C462.556854,289.521790 462.556854,306.763428 462.556854,324.362457 
	C457.496674,324.362457 452.407867,324.362457 446.945923,324.362457 
	C446.528992,317.872498 446.100647,311.204987 445.163849,304.443604 
z"/>
<path fill="#0A0C0D" opacity="1.000000" stroke="none" 
	d="
M157.058655,323.070068 
	C141.276627,317.367615 134.022339,306.045135 136.963791,292.245514 
	C139.264740,281.450714 149.645386,272.943939 163.239502,272.262146 
	C176.810257,271.581543 190.441788,272.112823 204.910370,272.112823 
	C201.531357,276.531799 198.690338,280.542664 195.488617,284.241272 
	C194.610519,285.255646 192.660110,285.746704 191.188232,285.775085 
	C182.870056,285.935516 174.539032,285.650330 166.229248,285.964172 
	C157.242874,286.303467 151.446259,293.176727 153.035599,301.034149 
	C154.178146,306.682739 159.965378,310.816376 167.524948,310.935822 
	C177.840805,311.098816 188.161011,310.986420 198.479355,310.991760 
	C200.305298,310.992706 202.131226,310.991913 205.046860,310.991913 
	C201.386124,315.686432 198.215683,319.797028 194.971771,323.848816 
	C194.611938,324.298218 193.822983,324.666016 193.249557,324.643860 
	C181.316544,324.182739 169.385910,323.659729 157.058655,323.070068 
z"/>
<path fill="#7BB0C6" opacity="1.000000" stroke="none" 
	d="
M463.023010,365.979553 
	C466.343201,356.051208 469.530060,346.484009 472.716888,336.916779 
	C472.948456,336.954224 473.180023,336.991638 473.411591,337.029053 
	C471.885193,344.210388 470.654480,351.469910 468.779419,358.559021 
	C461.919708,384.494019 451.234283,408.742188 436.019104,430.903015 
	C434.731781,432.778015 433.081024,434.579102 431.216461,435.855560 
	C406.637573,452.681671 379.659363,464.030792 350.696350,470.758026 
	C348.750793,471.209961 346.715759,471.276520 344.602020,471.055542 
	C400.008209,454.012970 439.875336,419.712952 463.023010,365.979553 
z"/>
<path fill="#2F66A0" opacity="1.000000" stroke="none" 
	d="
M151.007477,414.985962 
	C150.390656,413.366241 149.939972,411.632660 149.126816,410.090179 
	C137.834534,388.669525 129.902542,366.091766 126.068321,341.987488 
	C134.006714,368.954742 146.337784,393.525024 164.806183,414.799194 
	C183.333527,436.141296 205.690262,452.198029 231.548523,463.890808 
	C230.583084,463.763947 229.574097,463.776306 228.658615,463.489838 
	C204.967224,456.077332 182.815125,445.395142 163.002533,430.477020 
	C158.104996,426.789307 155.395462,420.195679 151.318344,414.941772 
	C150.956558,414.945648 151.005096,414.960968 151.007477,414.985962 
z"/>
<path fill="#7BB0C6" opacity="1.000000" stroke="none" 
	d="
M412.078369,152.924576 
	C417.270386,155.977249 421.973938,159.188934 427.025269,161.701355 
	C438.998230,167.656433 443.999207,179.148819 449.716431,189.943436 
	C461.005707,211.258636 468.420593,233.967697 472.792816,257.671234 
	C473.056915,259.102997 472.827087,260.625854 472.827087,263.268005 
	C458.010345,202.038986 422.295197,159.588806 365.859680,134.582184 
	C371.503052,133.974030 397.387115,144.205643 412.078369,152.924576 
z"/>
<path fill="#07090A" opacity="1.000000" stroke="none" 
	d="
M210.830292,303.999756 
	C210.830276,293.187500 210.830276,282.875183 210.830276,272.281250 
	C216.265076,272.281250 221.486557,272.281250 226.870453,272.281250 
	C226.870453,289.694305 226.870453,306.946594 226.870453,324.450317 
	C221.585709,324.450317 216.502716,324.450317 210.830292,324.450317 
	C210.830292,317.713043 210.830292,311.106384 210.830292,303.999756 
z"/>
<path fill="#E2E7F1" opacity="1.000000" stroke="none" 
	d="
M133.611084,71.237701 
	C163.592911,41.987770 198.689148,21.712305 239.639587,11.126062 
	C240.022827,11.538405 240.016800,11.913393 240.016785,12.569628 
	C224.847488,18.614290 209.319092,23.603382 194.580368,30.324226 
	C172.956284,40.184795 154.078354,54.386875 136.046356,70.902725 
	C134.974075,71.200005 134.666458,71.289101 134.358856,71.378189 
	C134.165939,71.411407 133.973007,71.444626 133.611084,71.237701 
z"/>
<path fill="#E3E8F1" opacity="1.000000" stroke="none" 
	d="
M477.935577,511.978088 
	C459.359650,534.482788 436.776672,552.066040 411.302399,566.055847 
	C406.206879,568.854126 400.892426,571.253662 395.319031,573.858521 
	C394.694275,573.602478 394.429382,573.324951 393.904236,572.913208 
	C405.875946,565.865112 418.444733,559.477356 430.260406,551.913147 
	C447.672699,540.766113 462.768066,526.778870 476.734314,511.237671 
	C477.413696,511.541870 477.674652,511.759979 477.935577,511.978088 
z"/>
<path fill="#E2E7F1" opacity="1.000000" stroke="none" 
	d="
M111.235664,97.127136 
	C112.136406,95.537537 113.271416,94.073944 114.711227,92.816177 
	C114.237206,94.603844 113.458389,96.185684 112.375671,97.944237 
	C111.871147,97.831688 111.670540,97.542419 111.235664,97.127136 
z"/>
<path fill="#26609C" opacity="1.000000" stroke="none" 
	d="
M153.021423,421.970245 
	C153.380630,422.401428 153.539536,423.007172 153.698456,423.612915 
	C153.380951,423.405396 153.063446,423.197906 152.586090,422.745361 
	C152.557861,422.381836 152.689484,422.263336 153.021423,421.970245 
z"/>
<path fill="#76ACC4" opacity="1.000000" stroke="none" 
	d="
M503.034668,482.019012 
	C503.147858,481.708069 503.261017,481.397156 503.587341,480.949646 
	C503.800537,480.813049 504.091095,481.093536 504.236755,481.239380 
	C504.091614,481.612213 503.800812,481.839203 503.251984,482.027649 
	C502.993927,481.989105 503.034668,482.019012 503.034668,482.019012 
z"/>
<path fill="#76ACC4" opacity="1.000000" stroke="none" 
	d="
M502.976288,481.971008 
	C502.886261,482.021973 502.813873,482.091003 502.888092,482.089539 
	C503.034668,482.019012 502.993927,481.989105 502.976288,481.971008 
z"/>
<path fill="#26609C" opacity="1.000000" stroke="none" 
	d="
M115.991180,504.005859 
	C115.829239,503.816528 115.638863,503.647461 115.448486,503.478394 
	C115.723862,503.534271 115.999252,503.590149 116.088112,503.852905 
	C115.901581,504.059814 115.962753,504.026123 115.991180,504.005859 
z"/>
<path fill="#E2E7F1" opacity="1.000000" stroke="none" 
	d="
M120.894066,86.969322 
	C121.841019,84.795509 122.987335,82.479752 124.512596,80.448547 
	C125.989464,78.481796 127.856140,76.807755 129.773010,74.725647 
	C129.876816,75.582977 130.175827,77.064789 129.569550,77.796967 
	C126.943695,80.968056 124.053352,83.920135 120.894066,86.969322 
z"/>
<path fill="#E2E7F1" opacity="1.000000" stroke="none" 
	d="
M115.324677,93.270401 
	C116.656792,90.794571 118.289024,88.576591 120.205597,86.693893 
	C118.868217,89.195526 117.246506,91.361893 115.324677,93.270401 
z"/>
<path fill="#E1E6F0" opacity="1.000000" stroke="none" 
	d="
M134.506836,71.687836 
	C134.666458,71.289101 134.974075,71.200005 135.758408,71.043564 
	C135.708359,71.316643 135.181580,71.657066 134.506836,71.687836 
z"/>
<path fill="#FEFEFE" opacity="1.000000" stroke="none" 
	d="
M482.670593,504.021484 
	C481.848633,505.846222 480.696472,507.741821 479.249878,509.321442 
	C480.083740,507.367767 481.212036,505.730072 482.670593,504.021484 
z"/>
<path fill="#FEFEFE" opacity="1.000000" stroke="none" 
	d="
M478.240723,511.656311 
	C477.674652,511.759979 477.413696,511.541870 477.037964,511.091766 
	C477.110870,510.577393 477.298523,510.295044 477.744568,509.982239 
	C478.183929,510.412720 478.364929,510.873627 478.240723,511.656311 
z"/>
<path fill="#FEFEFE" opacity="1.000000" stroke="none" 
	d="
M483.701843,502.927429 
	C483.933380,503.439972 483.848022,503.925293 483.355103,504.216553 
	C483.093323,503.648407 483.239136,503.274261 483.701843,502.927429 
z"/>
<path fill="#FEFEFE" opacity="1.000000" stroke="none" 
	d="
M478.714966,508.953796 
	C478.934998,509.437958 478.849274,509.925446 478.354095,510.218262 
	C478.099457,509.668121 478.254333,509.312592 478.714966,508.953796 
z"/>
<path fill="#FBFBFB" opacity="1.000000" stroke="none" 
	d="
M368.379822,309.720215 
	C358.438019,310.164062 348.816101,311.104370 339.296387,310.481598 
	C332.661346,310.047546 329.960938,305.219147 330.099487,297.846344 
	C330.233795,290.699066 332.815582,286.686493 339.637299,286.037964 
	C347.847717,285.257446 356.193481,285.513641 364.459198,285.849243 
	C369.284332,286.045166 372.951996,288.585297 374.030060,293.791809 
	C375.566772,301.213409 373.956177,306.043793 368.379822,309.720215 
z"/>
</svg>